<svg width="26" height="25" viewBox="0 0 26 25" fill="none" xmlns="http://www.w3.org/2000/svg">
<path d="M7.9053 24.4872C8.86049 24.4872 9.63482 23.7059 9.63482 22.7421C9.63482 21.7784 8.86049 20.9971 7.9053 20.9971C6.95011 20.9971 6.17578 21.7784 6.17578 22.7421C6.17578 23.7059 6.95011 24.4872 7.9053 24.4872Z" fill="#301F4A"/>
<path d="M16.8994 24.4872C17.8545 24.4872 18.6288 23.7059 18.6288 22.7421C18.6288 21.7784 17.8545 20.9971 16.8994 20.9971C15.9442 20.9971 15.1699 21.7784 15.1699 22.7421C15.1699 23.7059 15.9442 24.4872 16.8994 24.4872Z" fill="#301F4A"/>
<path d="M19.3208 11.5732C17.9448 11.5732 16.6251 11.0216 15.6521 10.0398C14.6791 9.058 14.1324 7.7264 14.1324 6.33793H4.9386L4.62729 5.33975C4.5931 5.23257 4.53371 5.13533 4.45421 5.05633C4.37471 4.97732 4.27744 4.91889 4.17071 4.88603L1.33439 4.00651C1.24718 3.97947 1.15554 3.97003 1.06471 3.97872C0.973878 3.98741 0.885634 4.01407 0.805015 4.05717C0.642198 4.14423 0.520321 4.29298 0.466196 4.4707C0.412072 4.64843 0.430133 4.84057 0.516407 5.00485C0.602681 5.16914 0.7501 5.29212 0.926234 5.34673L3.40975 6.11456L6.57813 16.2151L5.45052 17.1504L5.36059 17.2412C5.08173 17.567 4.92373 17.9804 4.91364 18.4108C4.90354 18.8412 5.04197 19.2617 5.30524 19.6005C5.4938 19.8319 5.73339 20.0155 6.00487 20.1367C6.27635 20.2579 6.57218 20.3133 6.86868 20.2985H18.4146C18.5981 20.2985 18.774 20.225 18.9038 20.0941C19.0335 19.9632 19.1064 19.7856 19.1064 19.6005C19.1064 19.4154 19.0335 19.2378 18.9038 19.1069C18.774 18.976 18.5981 18.9025 18.4146 18.9025H6.75799C6.67833 18.8997 6.60072 18.8763 6.53265 18.8345C6.46458 18.7926 6.40836 18.7338 6.36941 18.6636C6.33047 18.5934 6.31012 18.5143 6.31032 18.4339C6.31053 18.3534 6.33129 18.2744 6.37059 18.2045L8.0378 16.8084H18.7121C18.8701 16.813 19.0249 16.7629 19.1508 16.6664C19.2767 16.5699 19.366 16.4328 19.4039 16.2779L20.5868 11.3917C20.1739 11.5047 19.7486 11.5656 19.3208 11.5732Z" fill="#301F4A"/>
<path d="M20.7038 9.82809C23.3783 9.82809 25.5464 7.64046 25.5464 4.94188C25.5464 2.2433 23.3783 0.0556641 20.7038 0.0556641C18.0294 0.0556641 15.8613 2.2433 15.8613 4.94188C15.8613 7.64046 18.0294 9.82809 20.7038 9.82809Z" fill="#FA5C98"/>
</svg>
