<svg width="178" height="46" viewBox="0 0 178 46" fill="none" xmlns="http://www.w3.org/2000/svg">
<path d="M22.1958 37.7297C22.4966 37.8527 22.7062 38.1444 22.7062 38.4862C22.7062 38.9373 22.3416 39.3019 21.8905 39.3019H15.0274C15.1869 43.4489 15.1869 44.7249 15.1869 44.7431C15.1869 45.1943 14.8224 45.5588 14.3712 45.5588C13.92 45.5588 13.5555 45.1943 13.5555 44.7431C13.5555 44.7249 13.5555 43.3851 13.396 39.3019L13.3185 37.6659L13.3048 37.4563C13.2638 36.8046 13.2274 36.1347 13.2 35.5149C12.9448 30.5613 12.8628 28.9436 7.016 28.1324C5.02453 27.8544 3.41131 27.1298 2.24013 26.109C1.3925 25.3708 0.772733 24.473 0.399048 23.4796C0.029921 22.4861 -0.0885641 21.4061 0.0663782 20.2896C0.280563 18.7356 1.02337 17.1224 2.34038 15.6094C3.52068 14.2559 5.15213 12.8113 6.60585 11.5308C8.23731 10.0907 9.62723 8.86486 9.6728 8.5094C9.70014 8.30433 9.60445 8.08559 9.45862 7.92153C9.3857 7.8395 9.30823 7.7757 9.23532 7.7438L9.22164 7.73469C8.86619 8.32256 8.54263 8.7646 8.07781 9.06993L8.02312 9.10638C7.49905 9.42994 6.88384 9.53931 6.00887 9.4345C5.34809 9.35703 4.48223 9.4026 3.73942 9.71704C3.24269 9.92667 2.80521 10.2548 2.55457 10.7515C2.42241 11.0614 2.10341 11.2665 1.74796 11.2391C1.2968 11.2072 0.959575 10.8153 0.991474 10.3687C0.991474 10.3596 1.17832 6.77769 3.24269 5.33308C3.61638 2.7902 5.0382 1.38661 6.76991 0.86254C8.04591 0.479741 9.4814 0.602783 10.7711 1.11774C12.0516 1.63269 13.2046 2.53956 13.92 3.73353C15.0138 5.55182 15.1095 7.98989 13.1727 10.6421C12.0106 12.228 10.4794 13.6225 9.06215 14.9031C6.83827 16.9219 4.94706 18.6353 5.79469 20.0025C6.80637 21.6385 9.52242 20.0161 12.8127 18.052C14.9135 16.7943 17.2285 15.418 19.6119 14.5795C25.003 12.6928 30.5444 13.5405 34.3177 24.3317C34.4636 24.7556 34.2403 25.2204 33.8165 25.3662C33.3926 25.512 32.9278 25.2887 32.782 24.8649C29.4462 15.3223 24.7204 14.5157 20.1496 16.1107C17.9212 16.89 15.6837 18.2252 13.6512 19.4419C10.1878 21.5109 7.23929 23.2699 5.30252 21.8481C5.46202 22.1671 5.70354 22.4269 6.00887 22.6365C6.6013 23.033 7.41702 23.2608 8.32845 23.3565C10.2014 23.5525 12.3934 23.1879 13.8881 22.6C14.9408 22.1853 15.875 21.7798 16.7728 21.3924C18.4908 20.6496 20.0767 19.9615 21.5532 19.5741C25.8187 18.4439 29.0315 19.5923 31.2235 27.859C31.2235 27.859 27.5595 26.346 26.3519 26.109C24.7888 25.8083 23.1437 26.2868 21.7583 27.0341C20.5962 27.6585 19.7942 28.5243 19.3111 29.4995C18.8828 30.3608 18.705 31.3178 18.746 32.2703C18.7871 33.2318 19.0559 34.1979 19.5253 35.0638C20.1177 36.162 21.0292 37.1099 22.2095 37.7069L22.1958 37.7297Z" fill="#FA5C98"/>
<path d="M14.9457 37.6703H19.4026C18.874 37.128 18.4274 36.5174 18.0765 35.8611C17.4932 34.7811 17.1605 33.5735 17.1058 32.3658C17.0557 31.1445 17.2881 29.9186 17.8395 28.8021C18.4638 27.5353 19.4937 26.4188 20.9748 25.6213C22.6473 24.719 24.6661 24.1493 26.6484 24.5321C27.332 24.6643 28.0065 24.9058 28.6581 25.2886C26.9264 21.0322 24.7162 20.4444 21.9592 21.1735C20.5875 21.5381 19.0608 22.1943 17.4111 22.9098C16.4496 23.3245 15.4425 23.762 14.4763 24.1402C12.7811 24.8055 10.2929 25.2202 8.16017 24.9969C6.9981 24.8739 5.91806 24.564 5.09322 24.008C4.18635 23.3928 3.58026 22.5088 3.47544 21.2874C3.40709 20.4763 3.57114 19.5193 4.03597 18.4073C4.49624 16.8625 6.14136 15.3677 7.96877 13.7135C9.32224 12.4876 10.7851 11.1615 11.856 9.69411C13.3325 7.67075 13.3006 5.87979 12.5213 4.58101C11.9927 3.70149 11.1314 3.02703 10.1653 2.63968C9.20375 2.25688 8.15561 2.16118 7.23507 2.43916C6.0092 2.80829 5.01119 3.89289 4.81068 5.91625C4.78334 6.20335 4.60561 6.44032 4.36864 6.56336C3.75798 6.87325 3.35696 7.53859 3.09264 8.23127H3.11087C4.14078 7.79379 5.31652 7.72087 6.2006 7.83025C6.6791 7.88949 6.97531 7.85303 7.17127 7.73455L7.20317 7.71632C7.40824 7.57505 7.6042 7.29706 7.83661 6.90515C8.11004 6.44944 8.49284 6.20791 8.91665 6.13499C9.25388 6.07575 9.60478 6.13499 9.92833 6.28994C10.2109 6.42209 10.4706 6.62261 10.6848 6.86413C11.1132 7.35175 11.3866 8.04443 11.2909 8.75534C11.1588 9.70323 9.56377 11.1159 7.68623 12.7702C6.28719 14.0052 4.71498 15.3951 3.5757 16.703C2.47287 17.9699 1.85766 19.2869 1.68449 20.5355C1.56601 21.3831 1.65259 22.1943 1.93058 22.9326C2.204 23.6663 2.67339 24.3362 3.31594 24.8967C4.25927 25.717 5.58083 26.3048 7.23963 26.5373C14.4217 27.5307 14.5219 29.4857 14.8272 35.451C14.8546 36.0252 14.8865 36.645 14.9366 37.3741L14.9548 37.684L14.9457 37.6703Z" fill="url(#paint0_linear_22773_75883)"/>
<path d="M47.5588 14.5399V19.6919H50.1348C50.4879 19.6919 50.82 19.6261 51.1311 19.4945C51.4423 19.3568 51.7146 19.1713 51.9479 18.938C52.1813 18.7046 52.3638 18.4323 52.4954 18.1212C52.6331 17.804 52.7019 17.4689 52.7019 17.1159C52.7019 16.7629 52.6331 16.4308 52.4954 16.1196C52.3638 15.8025 52.1813 15.5272 51.9479 15.2939C51.7146 15.0605 51.4423 14.878 51.1311 14.7463C50.82 14.6087 50.4879 14.5399 50.1348 14.5399H47.5588ZM47.5588 24.835H44.9828V11.9639H50.1348C50.6076 11.9639 51.0623 12.0267 51.4991 12.1524C51.936 12.2721 52.3429 12.4456 52.7198 12.673C53.1028 12.8944 53.4498 13.1636 53.761 13.4808C54.0781 13.7919 54.3474 14.139 54.5688 14.5219C54.7962 14.9049 54.9697 15.3148 55.0894 15.7516C55.2151 16.1884 55.2779 16.6432 55.2779 17.1159C55.2779 17.822 55.1433 18.4892 54.874 19.1175C54.6047 19.7398 54.2367 20.2843 53.77 20.751C53.3032 21.2178 52.7557 21.5858 52.1274 21.855C51.5051 22.1243 50.8409 22.259 50.1348 22.259H47.5588V24.835ZM59.3708 24.835H56.7948V11.9639H59.3708V24.835ZM72.0623 24.835H69.3068L64.3433 16.362V24.835H61.7673V11.9639H64.5228L69.4863 20.4459V11.9639H72.0623V24.835ZM77.0348 24.835H74.4588V11.9639H77.0348V18.3994L81.8278 11.9639H84.7539L80.6879 17.3942L84.7539 24.835H81.8278L79.0005 19.6291L77.0348 22.259V24.835Z" fill="#FA5C98"/>
<path d="M88.5237 24.835H85.9477V11.9639H94.9592V14.5399H88.5237V17.1159H92.3832V19.6919H88.5237V24.835ZM105.299 24.835H96.2876V11.9639H98.8636V22.259H105.299V24.835ZM114.221 19.6919V17.1159C114.221 16.7629 114.152 16.4308 114.014 16.1196C113.883 15.8025 113.7 15.5272 113.467 15.2939C113.234 15.0605 112.958 14.878 112.641 14.7463C112.33 14.6087 111.998 14.5399 111.645 14.5399C111.292 14.5399 110.957 14.6087 110.64 14.7463C110.328 14.878 110.056 15.0605 109.823 15.2939C109.59 15.5272 109.404 15.8025 109.266 16.1196C109.135 16.4308 109.069 16.7629 109.069 17.1159V19.6919H114.221ZM116.797 24.835H114.221V22.259H109.069V24.835H106.502V17.1159C106.502 16.4038 106.637 15.7367 106.906 15.1143C107.175 14.486 107.54 13.9385 108.001 13.4718C108.468 13.0051 109.012 12.6371 109.634 12.3678C110.263 12.0985 110.933 11.9639 111.645 11.9639C112.357 11.9639 113.024 12.0985 113.646 12.3678C114.275 12.6371 114.822 13.0051 115.289 13.4718C115.756 13.9385 116.124 14.486 116.393 15.1143C116.662 15.7367 116.797 16.4038 116.797 17.1159V24.835ZM131.804 24.835H129.237V15.6439C129.237 15.4644 129.201 15.2968 129.129 15.1413C129.064 14.9857 128.971 14.8511 128.851 14.7374C128.738 14.6177 128.603 14.5249 128.447 14.4591C128.292 14.3933 128.124 14.3604 127.945 14.3604C127.765 14.3604 127.598 14.3933 127.442 14.4591C127.286 14.5249 127.149 14.6177 127.029 14.7374C126.915 14.8511 126.826 14.9857 126.76 15.1413C126.694 15.2968 126.661 15.4644 126.661 15.6439V24.835H124.085V15.6439C124.085 15.4644 124.052 15.2968 123.986 15.1413C123.921 14.9857 123.828 14.8511 123.708 14.7374C123.594 14.6177 123.46 14.5249 123.304 14.4591C123.149 14.3933 122.981 14.3604 122.802 14.3604C122.622 14.3604 122.455 14.3933 122.299 14.4591C122.143 14.5249 122.006 14.6177 121.886 14.7374C121.772 14.8511 121.683 14.9857 121.617 15.1413C121.551 15.2968 121.518 15.4644 121.518 15.6439V24.835H118.942V15.6439C118.942 15.1113 119.041 14.6117 119.238 14.145C119.442 13.6723 119.717 13.2624 120.064 12.9153C120.417 12.5623 120.827 12.287 121.294 12.0895C121.766 11.8861 122.269 11.7844 122.802 11.7844C123.28 11.7844 123.741 11.8711 124.184 12.0447C124.627 12.2122 125.025 12.4575 125.378 12.7807C125.731 12.4575 126.126 12.2122 126.562 12.0447C127.005 11.8711 127.466 11.7844 127.945 11.7844C128.477 11.7844 128.977 11.8861 129.444 12.0895C129.916 12.287 130.326 12.5623 130.673 12.9153C131.026 13.2624 131.302 13.6723 131.499 14.145C131.702 14.6117 131.804 15.1113 131.804 15.6439V24.835ZM136.687 24.835H134.111V11.9639H136.687V24.835ZM149.379 24.835H146.623L141.659 16.362V24.835H139.083V11.9639H141.839L146.803 20.4459V11.9639H149.379V24.835ZM162.016 23.5335C161.418 24.0421 160.751 24.434 160.015 24.7093C159.279 24.9786 158.513 25.1132 157.717 25.1132C157.107 25.1132 156.517 25.0324 155.949 24.8709C155.386 24.7153 154.86 24.4939 154.369 24.2067C153.878 23.9135 153.43 23.5664 153.023 23.1655C152.616 22.7586 152.269 22.3098 151.981 21.8191C151.694 21.3225 151.47 20.7899 151.308 20.2215C151.153 19.653 151.075 19.0636 151.075 18.4533C151.075 17.8429 151.153 17.2565 151.308 16.6941C151.47 16.1316 151.694 15.605 151.981 15.1143C152.269 14.6177 152.616 14.1689 153.023 13.768C153.43 13.3611 153.878 13.014 154.369 12.7268C154.86 12.4396 155.386 12.2182 155.949 12.0626C156.517 11.9011 157.107 11.8203 157.717 11.8203C158.513 11.8203 159.279 11.9579 160.015 12.2332C160.751 12.5024 161.418 12.8914 162.016 13.4L160.67 15.6439C160.281 15.249 159.832 14.9408 159.324 14.7194C158.815 14.492 158.279 14.3783 157.717 14.3783C157.154 14.3783 156.625 14.486 156.128 14.7015C155.638 14.9169 155.207 15.2101 154.836 15.5811C154.465 15.9461 154.172 16.3769 153.956 16.8736C153.741 17.3642 153.633 17.8908 153.633 18.4533C153.633 19.0217 153.741 19.5543 153.956 20.0509C154.172 20.5476 154.465 20.9814 154.836 21.3524C155.207 21.7234 155.638 22.0166 156.128 22.232C156.625 22.4474 157.154 22.5551 157.717 22.5551C158.04 22.5551 158.354 22.5163 158.659 22.4385C158.965 22.3607 159.255 22.253 159.53 22.1153V18.4533H162.016V23.5335ZM176.611 18.4533C176.611 19.0636 176.53 19.653 176.368 20.2215C176.213 20.784 175.991 21.3135 175.704 21.8102C175.417 22.3008 175.07 22.7496 174.663 23.1565C174.256 23.5634 173.807 23.9135 173.317 24.2067C172.826 24.4939 172.296 24.7153 171.728 24.8709C171.159 25.0324 170.57 25.1132 169.96 25.1132C169.349 25.1132 168.76 25.0324 168.191 24.8709C167.629 24.7153 167.099 24.4939 166.603 24.2067C166.112 23.9135 165.663 23.5634 165.256 23.1565C164.85 22.7496 164.5 22.3008 164.206 21.8102C163.919 21.3135 163.695 20.784 163.533 20.2215C163.378 19.653 163.3 19.0636 163.3 18.4533C163.3 17.8429 163.378 17.2535 163.533 16.6851C163.695 16.1166 163.919 15.5871 164.206 15.0964C164.5 14.6057 164.85 14.1569 165.256 13.75C165.663 13.3431 166.112 12.9961 166.603 12.7089C167.099 12.4216 167.629 12.2002 168.191 12.0447C168.76 11.8831 169.349 11.8023 169.96 11.8023C170.57 11.8023 171.159 11.8831 171.728 12.0447C172.296 12.2002 172.826 12.4216 173.317 12.7089C173.807 12.9961 174.256 13.3431 174.663 13.75C175.07 14.1569 175.417 14.6057 175.704 15.0964C175.991 15.5871 176.213 16.1166 176.368 16.6851C176.53 17.2535 176.611 17.8429 176.611 18.4533ZM174.053 18.4533C174.053 17.8908 173.945 17.3612 173.729 16.8646C173.514 16.362 173.221 15.9281 172.85 15.5631C172.485 15.1921 172.051 14.8989 171.548 14.6835C171.052 14.4681 170.522 14.3604 169.96 14.3604C169.391 14.3604 168.859 14.4681 168.362 14.6835C167.865 14.8989 167.432 15.1921 167.061 15.5631C166.69 15.9281 166.396 16.362 166.181 16.8646C165.966 17.3612 165.858 17.8908 165.858 18.4533C165.858 19.0158 165.966 19.5453 166.181 20.042C166.396 20.5326 166.69 20.9635 167.061 21.3345C167.432 21.7055 167.865 21.9987 168.362 22.2141C168.859 22.4295 169.391 22.5372 169.96 22.5372C170.522 22.5372 171.052 22.4295 171.548 22.2141C172.051 21.9987 172.485 21.7055 172.85 21.3345C173.221 20.9635 173.514 20.5326 173.729 20.042C173.945 19.5453 174.053 19.0158 174.053 18.4533Z" fill="#301F4A"/>
<path d="M47.102 38.835H45.8759V33.9179H44.0283V32.6875H48.9454V33.9179H47.102V38.835ZM54.2556 36.3786V35.1482C54.2556 34.9796 54.2228 34.821 54.157 34.6724C54.0942 34.5209 54.007 34.3894 53.8955 34.278C53.7841 34.1665 53.6526 34.0793 53.5012 34.0165C53.3525 33.9507 53.1939 33.9179 53.0253 33.9179C52.8567 33.9179 52.6966 33.9507 52.5452 34.0165C52.3966 34.0793 52.2665 34.1665 52.1551 34.278C52.0436 34.3894 51.955 34.5209 51.8893 34.6724C51.8264 34.821 51.795 34.9796 51.795 35.1482V36.3786H54.2556ZM55.486 38.835H54.2556V37.6046H51.795V38.835H50.5689V35.1482C50.5689 34.8081 50.6332 34.4895 50.7618 34.1922C50.8904 33.8921 51.0648 33.6306 51.2848 33.4077C51.5077 33.1848 51.7678 33.009 52.065 32.8804C52.3651 32.7518 52.6852 32.6875 53.0253 32.6875C53.3654 32.6875 53.6841 32.7518 53.9813 32.8804C54.2814 33.009 54.5429 33.1848 54.7658 33.4077C54.9887 33.6306 55.1645 33.8921 55.2931 34.1922C55.4217 34.4895 55.486 34.8081 55.486 35.1482V38.835ZM62.674 38.2134C62.3882 38.4563 62.0695 38.6435 61.718 38.7749C61.3664 38.9036 61.0006 38.9679 60.6205 38.9679C60.329 38.9679 60.0475 38.9293 59.776 38.8521C59.5074 38.7778 59.2559 38.6721 59.0215 38.5349C58.7872 38.3948 58.5728 38.2291 58.3785 38.0376C58.1841 37.8433 58.0184 37.6289 57.8812 37.3946C57.744 37.1573 57.6368 36.903 57.5597 36.6315C57.4854 36.36 57.4482 36.0785 57.4482 35.787C57.4482 35.4955 57.4854 35.2154 57.5597 34.9467C57.6368 34.6781 57.744 34.4266 57.8812 34.1922C58.0184 33.955 58.1841 33.7407 58.3785 33.5492C58.5728 33.3548 58.7872 33.1891 59.0215 33.0519C59.2559 32.9147 59.5074 32.809 59.776 32.7347C60.0475 32.6575 60.329 32.6189 60.6205 32.6189C61.0006 32.6189 61.3664 32.6847 61.718 32.8161C62.0695 32.9447 62.3882 33.1305 62.674 33.3734L62.0309 34.4452C61.8452 34.2565 61.6308 34.1093 61.3879 34.0036C61.145 33.895 60.8892 33.8407 60.6205 33.8407C60.3519 33.8407 60.0989 33.8921 59.8617 33.995C59.6274 34.0979 59.4216 34.238 59.2444 34.4151C59.0672 34.5895 58.9272 34.7953 58.8243 35.0325C58.7214 35.2668 58.67 35.5183 58.67 35.787C58.67 36.0585 58.7214 36.3128 58.8243 36.55C58.9272 36.7872 59.0672 36.9944 59.2444 37.1716C59.4216 37.3488 59.6274 37.4889 59.8617 37.5918C60.0989 37.6946 60.3519 37.7461 60.6205 37.7461C60.7749 37.7461 60.9249 37.7275 61.0707 37.6904C61.2164 37.6532 61.355 37.6018 61.4865 37.536V35.787H62.674V38.2134ZM69.1546 38.835H64.8505V32.6875H66.0809V37.6046H69.1546V38.835ZM72.2571 38.835H71.0268V32.6875H72.2571V38.835ZM79.548 38.835H78.2319L75.8612 34.7881V38.835H74.6309V32.6875H75.9469L78.3176 36.7387V32.6875H79.548V38.835ZM86.1358 38.835H81.9217V32.6875H86.1358V33.9179H83.1521V35.1482H85.1712V36.3786H83.1521V37.6046H86.1358V38.835ZM96.8078 38.2134C96.522 38.4563 96.2033 38.6435 95.8518 38.7749C95.5003 38.9036 95.1345 38.9679 94.7543 38.9679C94.4628 38.9679 94.1813 38.9293 93.9098 38.8521C93.6412 38.7778 93.3897 38.6721 93.1553 38.5349C92.921 38.3948 92.7066 38.2291 92.5123 38.0376C92.3179 37.8433 92.1522 37.6289 92.015 37.3946C91.8778 37.1573 91.7706 36.903 91.6935 36.6315C91.6192 36.36 91.582 36.0785 91.582 35.787C91.582 35.4955 91.6192 35.2154 91.6935 34.9467C91.7706 34.6781 91.8778 34.4266 92.015 34.1922C92.1522 33.955 92.3179 33.7407 92.5123 33.5492C92.7066 33.3548 92.921 33.1891 93.1553 33.0519C93.3897 32.9147 93.6412 32.809 93.9098 32.7347C94.1813 32.6575 94.4628 32.6189 94.7543 32.6189C95.1345 32.6189 95.5003 32.6847 95.8518 32.8161C96.2033 32.9447 96.522 33.1305 96.8078 33.3734L96.1647 34.4452C95.979 34.2565 95.7646 34.1093 95.5217 34.0036C95.2788 33.895 95.023 33.8407 94.7543 33.8407C94.4857 33.8407 94.2328 33.8921 93.9956 33.995C93.7612 34.0979 93.5554 34.238 93.3782 34.4151C93.2011 34.5895 93.061 34.7953 92.9581 35.0325C92.8552 35.2668 92.8038 35.5183 92.8038 35.787C92.8038 36.0585 92.8552 36.3128 92.9581 36.55C93.061 36.7872 93.2011 36.9944 93.3782 37.1716C93.5554 37.3488 93.7612 37.4889 93.9956 37.5918C94.2328 37.6946 94.4857 37.7461 94.7543 37.7461C94.9087 37.7461 95.0587 37.7275 95.2045 37.6904C95.3502 37.6532 95.4888 37.6018 95.6203 37.536V35.787H96.8078V38.2134ZM105.007 35.787C105.007 36.0785 104.969 36.36 104.892 36.6315C104.817 36.9001 104.712 37.1531 104.574 37.3903C104.437 37.6246 104.272 37.839 104.077 38.0333C103.883 38.2276 103.669 38.3948 103.434 38.5349C103.2 38.6721 102.947 38.7778 102.675 38.8521C102.404 38.9293 102.122 38.9679 101.831 38.9679C101.539 38.9679 101.258 38.9293 100.986 38.8521C100.718 38.7778 100.465 38.6721 100.228 38.5349C99.9932 38.3948 99.7788 38.2276 99.5845 38.0333C99.3902 37.839 99.223 37.6246 99.0829 37.3903C98.9458 37.1531 98.8386 36.9001 98.7614 36.6315C98.6871 36.36 98.65 36.0785 98.65 35.787C98.65 35.4955 98.6871 35.2139 98.7614 34.9424C98.8386 34.6709 98.9458 34.418 99.0829 34.1837C99.223 33.9493 99.3902 33.735 99.5845 33.5406C99.7788 33.3463 99.9932 33.1805 100.228 33.0433C100.465 32.9062 100.718 32.8004 100.986 32.7261C101.258 32.6489 101.539 32.6104 101.831 32.6104C102.122 32.6104 102.404 32.6489 102.675 32.7261C102.947 32.8004 103.2 32.9062 103.434 33.0433C103.669 33.1805 103.883 33.3463 104.077 33.5406C104.272 33.735 104.437 33.9493 104.574 34.1837C104.712 34.418 104.817 34.6709 104.892 34.9424C104.969 35.2139 105.007 35.4955 105.007 35.787ZM103.786 35.787C103.786 35.5183 103.734 35.2654 103.631 35.0282C103.528 34.7881 103.388 34.5809 103.211 34.4066C103.037 34.2294 102.83 34.0893 102.59 33.9865C102.352 33.8836 102.099 33.8321 101.831 33.8321C101.559 33.8321 101.305 33.8836 101.068 33.9865C100.831 34.0893 100.623 34.2294 100.446 34.4066C100.269 34.5809 100.129 34.7881 100.026 35.0282C99.9232 35.2654 99.8717 35.5183 99.8717 35.787C99.8717 36.0556 99.9232 36.3085 100.026 36.5457C100.129 36.7801 100.269 36.9859 100.446 37.1631C100.623 37.3403 100.831 37.4803 101.068 37.5832C101.305 37.6861 101.559 37.7375 101.831 37.7375C102.099 37.7375 102.352 37.6861 102.59 37.5832C102.83 37.4803 103.037 37.3403 103.211 37.1631C103.388 36.9859 103.528 36.7801 103.631 36.5457C103.734 36.3085 103.786 36.0556 103.786 35.787ZM111.261 38.835H107.047V32.6875H111.261V33.9179H108.277V35.1482H110.296V36.3786H108.277V37.6046H111.261V38.835ZM112.923 34.5309C112.923 34.2765 112.972 34.0379 113.069 33.815C113.166 33.5921 113.297 33.3977 113.463 33.232C113.632 33.0633 113.828 32.9304 114.05 32.8333C114.273 32.7361 114.512 32.6875 114.766 32.6875H117.587V33.9179H114.766C114.681 33.9179 114.601 33.9336 114.526 33.965C114.452 33.9965 114.386 34.0408 114.329 34.0979C114.275 34.1522 114.232 34.2165 114.2 34.2908C114.169 34.3651 114.153 34.4452 114.153 34.5309C114.153 34.6166 114.169 34.6981 114.2 34.7752C114.232 34.8496 114.275 34.9153 114.329 34.9724C114.386 35.0267 114.452 35.0696 114.526 35.1011C114.601 35.1325 114.681 35.1482 114.766 35.1482H115.997C116.251 35.1482 116.49 35.1968 116.713 35.294C116.938 35.3883 117.134 35.5197 117.3 35.6884C117.469 35.8541 117.6 36.0499 117.694 36.2757C117.792 36.4986 117.84 36.7372 117.84 36.9916C117.84 37.2459 117.792 37.4846 117.694 37.7075C117.6 37.9304 117.469 38.1262 117.3 38.2948C117.134 38.4606 116.938 38.592 116.713 38.6892C116.49 38.7864 116.251 38.835 115.997 38.835H113.266V37.6046H115.997C116.082 37.6046 116.162 37.5889 116.237 37.5575C116.311 37.526 116.375 37.4832 116.43 37.4289C116.487 37.3717 116.531 37.306 116.563 37.2317C116.594 37.1573 116.61 37.0773 116.61 36.9916C116.61 36.9058 116.594 36.8258 116.563 36.7515C116.531 36.6772 116.487 36.6129 116.43 36.5586C116.375 36.5014 116.311 36.4571 116.237 36.4257C116.162 36.3943 116.082 36.3786 115.997 36.3786H114.766C114.512 36.3786 114.273 36.33 114.05 36.2328C113.828 36.1356 113.632 36.0042 113.463 35.8384C113.297 35.6698 113.166 35.474 113.069 35.2511C112.972 35.0253 112.923 34.7853 112.923 34.5309ZM124.8 38.835H123.569V32.6875H124.8V35.1482H127.256V32.6875H128.486V38.835H127.256V36.3786H124.8V38.835ZM135.074 38.835H130.86V32.6875H135.074V33.9179H132.09V35.1482H134.11V36.3786H132.09V37.6046H135.074V38.835ZM138.395 33.9179V36.3786H139.626C139.794 36.3786 139.953 36.3471 140.102 36.2842C140.25 36.2185 140.38 36.1299 140.492 36.0185C140.603 35.907 140.69 35.777 140.753 35.6283C140.819 35.4769 140.852 35.3168 140.852 35.1482C140.852 34.9796 140.819 34.821 140.753 34.6724C140.69 34.5209 140.603 34.3894 140.492 34.278C140.38 34.1665 140.25 34.0793 140.102 34.0165C139.953 33.9507 139.794 33.9179 139.626 33.9179H138.395ZM138.395 38.835H137.165V32.6875H139.626C139.851 32.6875 140.069 32.7175 140.277 32.7775C140.486 32.8347 140.68 32.9176 140.86 33.0262C141.043 33.1319 141.209 33.2605 141.358 33.412C141.509 33.5606 141.638 33.7264 141.743 33.9093C141.852 34.0922 141.935 34.288 141.992 34.4966C142.052 34.7052 142.082 34.9224 142.082 35.1482C142.082 35.3597 142.055 35.5655 142.001 35.7655C141.949 35.9656 141.873 36.1556 141.773 36.3357C141.676 36.5157 141.556 36.6815 141.413 36.833C141.27 36.9844 141.11 37.1159 140.933 37.2274L141.615 38.835H140.307L139.771 37.596L138.395 37.6046V38.835ZM148.336 38.835H144.121V32.6875H148.336V33.9179H145.352V35.1482H147.371V36.3786H145.352V37.6046H148.336V38.835Z" fill="#FA5C98"/>
<defs>
<linearGradient id="paint0_linear_22773_75883" x1="1.62525" y1="19.975" x2="28.6536" y2="19.975" gradientUnits="userSpaceOnUse">
<stop stop-color="#DC8064"/>
<stop offset="0.13" stop-color="#E98C70"/>
<stop offset="0.26" stop-color="#FB9E82"/>
<stop offset="0.45" stop-color="#FDBB9F"/>
<stop offset="0.57" stop-color="#FFCAAE"/>
<stop offset="0.68" stop-color="#F8AD92"/>
<stop offset="0.81" stop-color="#F19176"/>
</linearGradient>
</defs>
</svg>
